<svg width="260" height="120" viewBox="0 0 260 120" fill="none" xmlns="http://www.w3.org/2000/svg">
<g clip-path="url(#clip0_453_64)">
<rect width="260" height="120" rx="15" fill="white"/>
<path d="M100.955 82.7273V88.4091H84.5305V82.7273H100.955ZM88.2592 76.1932H95.8232V101.619C95.8232 102.318 95.9297 102.862 96.1428 103.253C96.3558 103.632 96.6518 103.898 97.0305 104.052C97.4212 104.206 97.871 104.283 98.38 104.283C98.7351 104.283 99.0902 104.253 99.4453 104.194C99.8004 104.123 100.073 104.07 100.262 104.034L101.452 109.663C101.073 109.781 100.54 109.917 99.8537 110.071C99.1671 110.237 98.3326 110.337 97.3501 110.373C95.5272 110.444 93.9292 110.201 92.5561 109.645C91.1948 109.089 90.1354 108.224 89.3778 107.053C88.6203 105.881 88.2474 104.401 88.2592 102.614V76.1932ZM128.232 90.5043L121.307 90.9304C121.189 90.3385 120.934 89.8059 120.544 89.3324C120.153 88.8471 119.638 88.4624 118.999 88.1783C118.371 87.8823 117.62 87.7344 116.744 87.7344C115.572 87.7344 114.584 87.983 113.779 88.4801C112.974 88.9654 112.571 89.6165 112.571 90.4332C112.571 91.0843 112.832 91.6347 113.352 92.0845C113.873 92.5343 114.767 92.8954 116.034 93.1676L120.97 94.1619C123.621 94.7064 125.598 95.5824 126.9 96.7898C128.202 97.9972 128.853 99.5833 128.853 101.548C128.853 103.336 128.326 104.904 127.273 106.254C126.231 107.603 124.799 108.656 122.976 109.414C121.165 110.16 119.076 110.533 116.708 110.533C113.098 110.533 110.222 109.781 108.079 108.278C105.948 106.763 104.7 104.703 104.333 102.099L111.772 101.708C111.997 102.809 112.542 103.649 113.406 104.229C114.27 104.798 115.377 105.082 116.726 105.082C118.052 105.082 119.117 104.827 119.922 104.318C120.739 103.797 121.153 103.129 121.165 102.312C121.153 101.625 120.863 101.063 120.295 100.625C119.727 100.175 118.851 99.8319 117.667 99.5952L112.944 98.6541C110.281 98.1214 108.298 97.1982 106.996 95.8842C105.706 94.5703 105.061 92.8954 105.061 90.8594C105.061 89.1075 105.534 87.5982 106.481 86.3317C107.44 85.0651 108.783 84.0885 110.512 83.402C112.252 82.7154 114.288 82.3722 116.619 82.3722C120.064 82.3722 122.775 83.1001 124.752 84.5561C126.74 86.0121 127.9 87.9948 128.232 90.5043ZM167.88 90.5043L160.955 90.9304C160.837 90.3385 160.583 89.8059 160.192 89.3324C159.801 88.8471 159.286 88.4624 158.647 88.1783C158.02 87.8823 157.268 87.7344 156.392 87.7344C155.22 87.7344 154.232 87.983 153.427 88.4801C152.622 88.9654 152.22 89.6165 152.22 90.4332C152.22 91.0843 152.48 91.6347 153.001 92.0845C153.522 92.5343 154.415 92.8954 155.682 93.1676L160.618 94.1619C163.27 94.7064 165.246 95.5824 166.548 96.7898C167.851 97.9972 168.502 99.5833 168.502 101.548C168.502 103.336 167.975 104.904 166.921 106.254C165.88 107.603 164.447 108.656 162.624 109.414C160.813 110.16 158.724 110.533 156.357 110.533C152.746 110.533 149.87 109.781 147.727 108.278C145.597 106.763 144.348 104.703 143.981 102.099L151.421 101.708C151.646 102.809 152.19 103.649 153.054 104.229C153.918 104.798 155.025 105.082 156.374 105.082C157.7 105.082 158.766 104.827 159.57 104.318C160.387 103.797 160.802 103.129 160.813 102.312C160.802 101.625 160.512 101.063 159.943 100.625C159.375 100.175 158.499 99.8319 157.316 99.5952L152.593 98.6541C149.929 98.1214 147.946 97.1982 146.644 95.8842C145.354 94.5703 144.709 92.8954 144.709 90.8594C144.709 89.1075 145.182 87.5982 146.129 86.3317C147.088 85.0651 148.432 84.0885 150.16 83.402C151.9 82.7154 153.936 82.3722 156.268 82.3722C159.713 82.3722 162.423 83.1001 164.4 84.5561C166.389 86.0121 167.549 87.9948 167.88 90.5043ZM187.771 82.7273V88.4091H171.347V82.7273H187.771ZM175.076 76.1932H182.64V101.619C182.64 102.318 182.746 102.862 182.959 103.253C183.172 103.632 183.468 103.898 183.847 104.052C184.238 104.206 184.687 104.283 185.196 104.283C185.551 104.283 185.907 104.253 186.262 104.194C186.617 104.123 186.889 104.07 187.078 104.034L188.268 109.663C187.889 109.781 187.357 109.917 186.67 110.071C185.984 110.237 185.149 110.337 184.167 110.373C182.344 110.444 180.746 110.201 179.373 109.645C178.011 109.089 176.952 108.224 176.194 107.053C175.437 105.881 175.064 104.401 175.076 102.614V76.1932ZM210.188 98.3878V82.7273H217.751V110H210.489V105.046H210.205C209.59 106.644 208.566 107.929 207.134 108.899C205.713 109.87 203.979 110.355 201.931 110.355C200.108 110.355 198.504 109.941 197.119 109.112C195.734 108.284 194.651 107.106 193.87 105.579C193.101 104.052 192.71 102.223 192.698 100.092V82.7273H200.262V98.7429C200.274 100.353 200.706 101.625 201.558 102.56C202.411 103.496 203.553 103.963 204.985 103.963C205.897 103.963 206.749 103.756 207.542 103.342C208.335 102.915 208.974 102.288 209.46 101.46C209.957 100.631 210.199 99.607 210.188 98.3878ZM223.944 110V73.6364H231.508V87.3082H231.738C232.07 86.5743 232.549 85.8286 233.177 85.071C233.816 84.3016 234.644 83.6624 235.662 83.1534C236.692 82.6326 237.971 82.3722 239.498 82.3722C241.486 82.3722 243.321 82.893 245.002 83.9347C246.683 84.9645 248.026 86.5211 249.032 88.6044C250.039 90.6759 250.542 93.2741 250.542 96.3991C250.542 99.4413 250.05 102.01 249.068 104.105C248.097 106.188 246.772 107.769 245.091 108.846C243.422 109.911 241.551 110.444 239.48 110.444C238.012 110.444 236.763 110.201 235.733 109.716C234.715 109.231 233.881 108.621 233.23 107.887C232.579 107.141 232.082 106.39 231.738 105.632H231.401V110H223.944ZM231.348 96.3636C231.348 97.9853 231.573 99.3999 232.023 100.607C232.472 101.815 233.123 102.756 233.976 103.43C234.828 104.093 235.864 104.425 237.083 104.425C238.314 104.425 239.356 104.087 240.208 103.413C241.06 102.726 241.705 101.779 242.143 100.572C242.593 99.3525 242.818 97.9498 242.818 96.3636C242.818 94.7893 242.599 93.4044 242.161 92.2088C241.723 91.0133 241.078 90.0781 240.226 89.4034C239.373 88.7287 238.326 88.3913 237.083 88.3913C235.852 88.3913 234.81 88.7169 233.958 89.3679C233.117 90.0189 232.472 90.9422 232.023 92.1378C231.573 93.3333 231.348 94.742 231.348 96.3636Z" fill="black"/>
<path d="M191.5 62H145C144.448 62 144 62.4477 144 63V69C144 69.5523 144.448 70 145 70H191.5C192.052 70 192.5 70.4477 192.5 71V75.8744C192.5 76.7206 193.486 77.1843 194.138 76.6448L206.069 66.7704C206.552 66.3705 206.552 65.6295 206.069 65.2296L194.138 55.3552C193.486 54.8157 192.5 55.2794 192.5 56.1256V61C192.5 61.5523 192.052 62 191.5 62Z" fill="#3178C6"/>
</g>
<defs>
<clipPath id="clip0_453_64">
<rect width="260" height="120" rx="15" fill="white"/>
</clipPath>
</defs>
</svg>
